<?xml version="1.0" encoding="UTF-8" standalone="no"?>
<svg
   xmlns:dc="http://purl.org/dc/elements/1.1/"
   xmlns:cc="http://creativecommons.org/ns#"
   xmlns:rdf="http://www.w3.org/1999/02/22-rdf-syntax-ns#"
   xmlns:svg="http://www.w3.org/2000/svg"
   xmlns="http://www.w3.org/2000/svg"
   xmlns:sodipodi="http://sodipodi.sourceforge.net/DTD/sodipodi-0.dtd"
   xmlns:inkscape="http://www.inkscape.org/namespaces/inkscape"
   version="1.1"
   x="0px"
   y="0px"
   width="800"
   height="300"
   viewBox="0 0 26.666667 10"
   id="svg4403"
   inkscape:version="0.91 r13725"
   sodipodi:docname="npm.svg">
  <metadata
     id="metadata4417">
    <rdf:RDF>
      <cc:Work
         rdf:about="">
        <dc:format>image/svg+xml</dc:format>
        <dc:type
           rdf:resource="http://purl.org/dc/dcmitype/StillImage" />
        <dc:title></dc:title>
      </cc:Work>
    </rdf:RDF>
  </metadata>
  <defs
     id="defs4415" />
  <sodipodi:namedview
     pagecolor="#ffffff"
     bordercolor="#666666"
     borderopacity="1"
     objecttolerance="10"
     gridtolerance="10"
     guidetolerance="10"
     inkscape:pageopacity="0"
     inkscape:pageshadow="2"
     inkscape:window-width="3391"
     inkscape:window-height="1422"
     id="namedview4413"
     showgrid="false"
     inkscape:zoom="1.881035"
     inkscape:cx="202.47488"
     inkscape:cy="205.8266"
     inkscape:window-x="49"
     inkscape:window-y="18"
     inkscape:window-maximized="1"
     inkscape:current-layer="svg4403" />
  <g
     id="g4419"
     transform="matrix(1.3042251,0,0,1.3042251,1.5953083,-3.4774633)">
    <path
       style="fill:#cb3837"
       inkscape:connector-curvature="0"
       id="path4405"
       d="m 0,3.0000002 18,0 0,6 -9,0 L 9,10 5,10 5,9.0000002 l -5,0 0,-6 z m 1,5 2,0 0,-3 1,0 0,3 1,0 0,-4 -4,0 0,4 z m 5,-4 0,5 2,0 0,-1 2,0 0,-4 -4,0 z m 2,1 1,0 0,2 -1,0 0,-2 z m 3,-1 0,4 2,0 0,-3 1,0 0,3 1,0 0,-3 1,0 0,3 1,0 0,-4 -6,0 z" />
    <polygon
       transform="translate(0,3.0000002)"
       style="fill:#ffffff"
       id="polygon4407"
       points="3,2 4,2 4,5 5,5 5,1 1,1 1,5 3,5 " />
    <path
       style="fill:#ffffff"
       inkscape:connector-curvature="0"
       id="path4409"
       d="m 6,4.0000002 0,5 2,0 0,-1 2,0 0,-4 -4,0 z m 3,3 -1,0 0,-2 1,0 0,2 z" />
    <polygon
       transform="translate(0,3.0000002)"
       style="fill:#ffffff"
       id="polygon4411"
       points="17,5 17,1 11,1 11,5 13,5 13,2 14,2 14,5 15,5 15,2 16,2 16,5 " />
  </g>
</svg>
